<?xml version="1.0" encoding="UTF-8" standalone="no"?>
<!-- Generator: Adobe Illustrator 16.0.0, SVG Export Plug-In . SVG Version: 6.00 Build 0)  -->

<svg
   xmlns:dc="http://purl.org/dc/elements/1.1/"
   xmlns:cc="http://creativecommons.org/ns#"
   xmlns:rdf="http://www.w3.org/1999/02/22-rdf-syntax-ns#"
   xmlns:svg="http://www.w3.org/2000/svg"
   xmlns="http://www.w3.org/2000/svg"
   xmlns:sodipodi="http://sodipodi.sourceforge.net/DTD/sodipodi-0.dtd"
   xmlns:inkscape="http://www.inkscape.org/namespaces/inkscape"
   version="1.1"
   id="Layer_1"
   x="0px"
   y="0px"
   width="254.5px"
   height="155.5px"
   viewBox="0 0 254.5 155.5"
   enable-background="new 0 0 254.5 155.5"
   xml:space="preserve"
   sodipodi:docname="ess-logo.svg"
   inkscape:version="0.92.4 (5da689c313, 2019-01-14)"><metadata
   id="metadata67"><rdf:RDF><cc:Work
       rdf:about=""><dc:format>image/svg+xml</dc:format><dc:type
         rdf:resource="http://purl.org/dc/dcmitype/StillImage" /><dc:title></dc:title></cc:Work></rdf:RDF></metadata><defs
   id="defs65" /><sodipodi:namedview
   pagecolor="#ffffff"
   bordercolor="#666666"
   borderopacity="1"
   objecttolerance="10"
   gridtolerance="10"
   guidetolerance="10"
   inkscape:pageopacity="0"
   inkscape:pageshadow="2"
   inkscape:window-width="1222"
   inkscape:window-height="984"
   id="namedview63"
   showgrid="false"
   inkscape:pagecheckerboard="true"
   inkscape:zoom="1.8837658"
   inkscape:cx="49.740216"
   inkscape:cy="80.264432"
   inkscape:window-x="0"
   inkscape:window-y="27"
   inkscape:window-maximized="0"
   inkscape:current-layer="Layer_1" />






























<path
   d="m 165.72305,93.80632 c 0,1.20404 -0.74347,1.5825 -1.85278,1.5825 -1.08231,0 -1.81253,-0.3652 -1.81253,-1.5825 v -6.34417 h -1.59645 v 6.34417 c 0,2.24544 1.19034,3.1382 3.40898,3.1382 2.24515,0 3.44924,-0.89276 3.44924,-3.1382 v -6.34417 h -1.59646 z m 30.37483,-13.08497 h 1.59645 v -9.36073 h -1.59645 z M 164.26263,59.91242 h -1.97556 v -3.1384 h 1.94806 c 1.02829,0 1.52868,0.5004 1.52868,1.52869 0,0.96052 -0.40611,1.60971 -1.50118,1.60971 z m 3.1379,-1.63721 c 0,-2.13712 -1.0278,-3.01612 -3.1654,-3.01612 h -3.53027 v 9.36117 h 1.58221 v -3.1929 h 2.08359 l 1.28512,3.1929 h 1.74475 l -1.47467,-3.65254 c 0.96102,-0.47339 1.47467,-1.28561 1.47467,-2.69251 z m -13.07706,37.16832 c -1.73199,0 -2.13761,-1.05579 -2.13761,-3.23317 0,-2.17856 0.41937,-3.36881 2.13761,-3.36881 1.71774,0 2.13711,1.19025 2.13711,3.36881 0,2.20478 -0.40611,3.23317 -2.13711,3.23317 z m 0,-8.13062 c -2.89532,0 -3.77482,1.75846 -3.77482,4.89745 0,3.1378 0.8795,4.76122 3.77482,4.76122 2.89434,0 3.77383,-1.59597 3.77383,-4.76122 0,-3.13899 -0.87949,-4.89745 -3.77383,-4.89745 z m 7.6999,-14.49137 h 0.63593 l 1.04155,4.53179 h -2.74653 z m 1.98832,6.06043 0.51415,1.83938 h 1.59645 l -2.20488,-9.36073 h -3.12514 l -2.23238,9.36073 h 1.59645 l 0.46013,-1.83938 z m 9.18046,0.31114 h -3.53419 v -7.83249 h -1.5827 v 9.36073 h 5.11689 z m 9.62733,-1.83978 1.06905,-4.53179 h 0.63593 l 1.04155,4.53179 z m 2.9626,-5.99271 h -3.12465 l -2.23189,9.36073 h 1.59596 l 0.45964,-1.83938 h 3.39571 l 0.51366,1.83938 h 1.59645 z m 0.70664,25.46226 h 5.84367 V 95.3079 h -4.27471 v -2.39453 h 3.46298 v -1.48778 h -3.46298 v -2.44841 h 4.27471 v -1.51503 h -5.84367 z M 198.592,56.72001 h 0.63593 l 1.04155,4.53154 h -2.74653 z m -1.4069,6.06023 h 3.39522 l 0.51415,1.84002 h 1.59645 l -2.20537,-9.36117 h -3.12465 l -2.23238,9.36117 h 1.59645 z m -9.19814,10.10857 h 2.59724 v 7.83254 h 1.59596 v -7.83254 h 2.57073 v -1.52819 h -6.76393 z M 182.45511,88.869 c 0.81174,0 2.39444,0.20237 2.39444,0.20237 l 0.054,-1.3932 c 0,0 -1.48793,-0.36526 -2.66501,-0.36526 -2.65127,0 -3.47674,1.43426 -3.47674,4.84274 0,3.19251 0.64967,4.81593 3.47674,4.81593 1.06855,0 2.65175,-0.33781 2.65175,-0.33781 l -0.0408,-1.43386 c 0,0 -1.6102,0.21597 -2.34042,0.21597 -1.78551,0 -2.1101,-0.87891 -2.1101,-3.26023 0,-2.50193 0.41936,-3.28665 2.05608,-3.28665 z m -8.8485,3.24638 h -1.97506 v -3.1382 h 1.94756 c 1.02829,0 1.52918,0.50025 1.52918,1.52864 0,0.96043 -0.40562,1.60956 -1.50168,1.60956 z m 3.1384,-1.63721 c 0,-2.13706 -1.02829,-3.01602 -3.1659,-3.01602 h -3.53026 v 9.36073 h 1.5827 v -3.19246 h 2.0831 l 1.28511,3.19246 h 1.74525 l -1.47467,-3.6521 c 0.96052,-0.47397 1.47467,-1.28522 1.47467,-2.69261 z m 27.17848,-11.13642 c -1.73149,0 -2.13711,-1.0552 -2.13711,-3.23352 0,-2.17738 0.41937,-3.36772 2.13711,-3.36772 1.71824,0 2.13761,1.19034 2.13761,3.36772 0,2.20538 -0.40562,3.23352 -2.13761,3.23352 z m 0,-8.13042 c -2.89482,0 -3.77383,1.759 -3.77383,4.8969 0,3.13855 0.87901,4.76236 3.77383,4.76236 2.89533,0 3.77433,-1.59656 3.77433,-4.76236 0,-3.1379 -0.879,-4.8969 -3.77433,-4.8969 z m -29.39269,0.14929 v 9.36073 h 5.11689 v -1.52824 h -3.53419 v -7.83249 z m 41.39875,0 v 7.38611 h -0.23031 l -2.97586,-7.38611 h -2.57023 v 9.36073 h 1.5827 v -7.38616 h 0.22982 l 3.05737,7.38616 h 2.50246 v -9.36073 z m -22.24182,-8.25579 h -4.27472 V 60.7104 h 3.46299 v -1.48793 h -3.46299 v -2.44845 h 4.27472 v -1.51493 h -5.84416 v 9.36117 h 5.84416 z m -50.63175,1.51543 h 5.84417 v -1.51543 h -4.27473 V 60.7104 h 3.463 v -1.48793 h -3.463 v -2.44845 h 4.27473 v -1.51493 h -5.84417 z m 37.85719,-7.83298 h 1.79877 c 1.06905,0 1.56944,0.5279 1.56944,1.65096 0,1.13583 -0.50039,1.82578 -1.56944,1.82578 h -1.79877 z m 0,5.00543 h 1.81252 c 2.12386,0 3.17915,-1.2311 3.17915,-3.35447 0,-2.12435 -1.05529,-3.17915 -3.17915,-3.17915 h -3.39572 v 9.36117 h 1.5832 z m -7.81236,-5.15373 c 1.71824,0 2.13712,1.18985 2.13712,3.36821 0,2.20489 -0.40562,3.23318 -2.13712,3.23318 -1.73149,0 -2.1376,-1.0553 -2.1376,-3.23318 0,-2.17836 0.41986,-3.36821 2.1376,-3.36821 z m 0,8.13007 c 2.89483,0 3.77433,-1.59645 3.77433,-4.76186 0,-3.13839 -0.8795,-4.8969 -3.77433,-4.8969 -2.89531,0 -3.77432,1.75851 -3.77432,4.8969 0,3.1384 0.87901,4.76186 3.77432,4.76186 z M 146.0996,91.39853 c -1.56895,-0.44692 -2.02859,-0.64968 -2.02859,-1.44766 0,-0.75772 0.55441,-1.10932 1.66324,-1.10932 0.78472,0 2.67876,0.21656 2.67876,0.21656 l 0.12178,-1.4206 c 0,0 -1.75899,-0.33781 -2.80054,-0.33781 -2.01533,0 -3.24643,0.89271 -3.24643,2.67822 0,1.67748 0.83874,2.29956 2.86831,2.82746 1.39315,0.3516 1.78551,0.63588 1.78551,1.36614 0,0.90656 -0.50088,1.25762 -1.6102,1.25762 -0.96052,0 -2.67827,-0.22923 -2.67827,-0.22923 l -0.16205,1.42006 c 0,0 1.82627,0.35161 2.85407,0.35161 1.89404,0 3.19291,-0.89217 3.19291,-2.84032 0,-1.63722 -0.69044,-2.16452 -2.6385,-2.73273 z m 8.42668,-26.65649 c 2.24515,0 3.44924,-0.89324 3.44924,-3.13888 v -6.34407 h -1.59645 v 6.34407 c 0,1.20409 -0.74396,1.5827 -1.85279,1.5827 -1.08231,0 -1.81301,-0.36486 -1.81301,-1.5827 v -6.34407 h -1.59645 v 6.34407 c 0,2.24564 1.19083,3.13888 3.40946,3.13888 z M 146.0996,75.297 c -1.56895,-0.44638 -2.02859,-0.64919 -2.02859,-1.44717 0,-0.75772 0.55441,-1.10932 1.66324,-1.10932 0.78472,0 2.67876,0.21607 2.67876,0.21607 l 0.12178,-1.42016 c 0,0 -1.75899,-0.33835 -2.80054,-0.33835 -2.01533,0 -3.24643,0.89276 -3.24643,2.67827 0,1.67748 0.83874,2.30015 2.86831,2.82726 1.39315,0.352 1.78551,0.63593 1.78551,1.36654 0,0.90621 -0.50088,1.2582 -1.6102,1.2582 -0.96052,0 -2.67827,-0.23021 -2.67827,-0.23021 l -0.16205,1.42026 c 0,0 1.82627,0.35219 2.85407,0.35219 1.89404,0 3.19291,-0.89275 3.19291,-2.84091 0,-1.63701 -0.69044,-2.16451 -2.6385,-2.73267 z m 6.39711,-2.40819 h 1.79926 c 1.06905,0 1.56895,0.5279 1.56895,1.65047 0,1.13633 -0.4999,1.82637 -1.56895,1.82637 h -1.79926 z m 0,5.00563 h 1.81252 c 2.12385,0 3.17916,-1.2313 3.17916,-3.35516 0,-2.12385 -1.05531,-3.17866 -3.17916,-3.17866 H 150.914 v 9.36073 h 1.58271 z m 59.51954,-22.63535 h -1.59597 v 7.38562 h -0.2303 l -2.97586,-7.38562 h -2.57023 v 9.36117 h 1.5827 v -7.38611 h 0.23031 l 3.05688,7.38611 h 2.50247 v -9.36117"
   style="fill:#ffffff;fill-opacity:1;fill-rule:nonzero;stroke:none;stroke-width:0.0491065"
   id="path3798"
   inkscape:connector-curvature="0" /><path
   d="m 102.01227,77.97158 c 4.76874,0.9702 6.36126,1.56296 6.36126,3.3469 0,1.63569 -1.57975,2.82456 -4.25066,2.82456 -2.88157,0 -4.72061,-1.33815 -4.87087,-3.32004 h -2.95229 c -0.17187,-4.25076 -4.0228,-6.09417 -8.72897,-6.98791 -4.72631,-0.89668 -6.28121,-1.53604 -6.28121,-3.31959 0,-1.58565 1.46725,-2.67631 4.072,-2.67631 2.60938,0 4.19734,1.23257 4.45612,3.03822 h 3.91232 c 0.0349,3.4846 2.8526,5.99001 8.2823,7.09417 z m -16.44989,6.17146 c -2.88118,0 -4.72017,-1.33815 -4.87112,-3.32004 h -9.64005 c -0.72373,1.64163 -2.58924,3.06474 -5.31023,3.06474 -3.56213,0 -6.36062,-2.68034 -6.59962,-5.83985 h 19.08092 c 0.14217,-0.53997 0.19049,-1.17777 0.19108,-1.91265 1.29842,0.79818 2.98091,1.41795 5.03857,1.83634 4.76878,0.9702 6.3613,1.56296 6.3613,3.3469 0,1.63569 -1.57975,2.82456 -4.25085,2.82456 z m -19.8214,-15.9493 c 3.30241,0 5.771,2.18917 6.59928,4.94797 h -12.9599 c 0.89119,-2.78139 3.28017,-4.94797 6.36062,-4.94797 z m 38.18055,-0.35455 c 2.60952,0 4.19763,1.23257 4.45642,3.03822 h 5.73073 c -0.0629,-2.17493 -1.01356,-3.97959 -2.85554,-5.36734 -1.90828,-1.43735 -4.36901,-2.18033 -7.38169,-2.18033 -6.60385,0 -8.82395,3.41732 -9.28948,4.21089 -0.46357,-0.75183 -2.80349,-4.21089 -9.27067,-4.21089 -6.93345,0 -9.07837,3.70411 -9.54626,4.69753 -2.06571,-2.64439 -5.28872,-4.69753 -10.07199,-4.69753 -3.68259,0 -6.74315,1.18936 -9.134,3.56808 -2.43902,2.42832 -3.63467,5.45082 -3.63467,9.16769 0,3.71687 1.19565,6.73938 3.63467,9.11859 2.39085,2.37877 5.45141,3.56867 9.134,3.56867 6.07998,0 9.07032,-3.45322 9.92143,-4.43688 0.50236,0.81527 3.05782,4.43688 9.99833,4.43688 6.39205,0 8.81938,-3.03007 9.23384,-3.53243 0.52593,0.62075 3.12612,3.53243 9.32631,3.53243 3.16344,0 5.72434,-0.69402 7.7328,-2.13177 1.95837,-1.4369 2.9621,-3.27054 2.9621,-5.50047 0,-4.46412 -3.92164,-6.37107 -8.73702,-7.28544 -4.72601,-0.89668 -6.28122,-1.53605 -6.28122,-3.31959 0,-1.58565 1.46731,-2.67631 4.07191,-2.67631 z M 125.6438,50.71183 c -5.03686,-6.21934 -12.03895,-10.25001 -20.25054,-11.65445 -0.14781,-0.0255 -0.28924,0.0462 -0.35995,0.16892 -0.0202,0.0349 -0.0344,0.0732 -0.0418,0.11491 -0.0324,0.18955 0.0948,0.36928 0.28433,0.40169 8.04217,1.37646 14.89842,5.32069 19.82675,11.40695 5.78721,7.14598 8.13842,16.36917 6.62005,25.96983 -1.51985,9.61471 -6.73594,18.4554 -14.68776,24.89469 -4.8144,3.89861 -10.22102,6.61558 -16.06961,8.07551 -4.4898,1.12066 -9.1235,1.43161 -13.57294,0.92478 4.89091,-0.49411 9.65424,-2.00855 13.93682,-4.44851 5.38993,-3.07073 9.88711,-7.54919 13.00586,-12.95091 2.83197,-4.90529 4.40486,-10.24121 4.67445,-15.86007 0.25732,-5.35988 -0.73856,-10.80137 -2.88108,-15.73608 -0.0766,-0.17629 -0.28138,-0.25732 -0.45767,-0.18071 -0.1758,0.0766 -0.25683,0.28138 -0.18071,0.45767 2.09979,4.83748 3.07652,10.17192 2.82411,15.42578 -0.26419,5.5068 -1.80565,10.73664 -4.58164,15.54525 -3.05737,5.29505 -7.46517,9.68473 -12.74755,12.69442 -5.12722,2.9209 -10.95714,4.48843 -16.85856,4.53351 -0.17821,0.001 -0.32671,0.13696 -0.34394,0.31384 -0.0175,0.17723 0.10145,0.33874 0.27563,0.37523 5.49389,1.14305 11.39895,0.99823 17.07615,-0.41898 5.94729,-1.48488 11.44476,-4.24713 16.33872,-8.20997 8.08587,-6.54747 13.39036,-15.54182 14.9377,-25.32648 1.54882,-9.79852 -0.85445,-19.21567 -6.76687,-26.51683 z m -20.51228,61.94789 c -0.1483,-0.12276 -0.36732,-0.10258 -0.49008,0.0457 -5.21315,6.27626 -12.05713,10.24217 -19.79209,11.46734 -9.08239,1.43828 -18.24517,-1.13731 -25.80065,-7.25203 -7.56663,-6.12354 -12.61463,-15.0615 -14.21535,-25.16709 -0.96932,-6.11911 -0.61904,-12.16019 1.04101,-17.95485 1.27446,-4.44856 3.32215,-8.61672 5.98578,-12.21672 -2.01739,4.48244 -3.08777,9.36461 -3.11615,14.29392 -0.0355,6.20269 1.59424,12.33698 4.7131,17.73869 2.83207,4.9053 6.6668,8.93493 11.39786,11.97855 4.51304,2.90264 9.72388,4.76044 15.06863,5.37274 0.19087,0.0217 0.36329,-0.1149 0.38499,-0.30632 0.0218,-0.19068 -0.1151,-0.36295 -0.30598,-0.385 -5.23922,-0.60057 -10.34708,-2.42193 -14.77128,-5.26726 -4.63669,-2.98223 -8.3953,-6.93226 -11.17134,-11.74028 -3.05727,-5.29525 -4.65476,-11.30771 -4.61984,-17.38719 0.0338,-5.90064 1.591,-11.73302 4.50282,-16.86661 0.0877,-0.15518 0.0445,-0.3516 -0.0997,-0.45473 -0.14462,-0.10361 -0.34414,-0.0815 -0.46268,0.0511 -3.73686,4.18633 -6.56416,9.37247 -8.17506,14.99762 -1.68843,5.89312 -2.04464,12.03512 -1.05961,18.25534 1.62758,10.27608 6.76476,19.36711 14.46471,25.59922 7.7111,6.24096 17.068,8.86759 26.34755,7.39842 7.90463,-1.25222 14.89641,-5.30157 20.21858,-11.71056 0.0957,-0.11491 0.10459,-0.27332 0.0334,-0.39609 -0.0196,-0.0349 -0.0462,-0.067 -0.0786,-0.0939 z M 41.73655,52.80082 c 3.29533,-8.58529 10.10709,-15.23284 19.1805,-18.71842 9.08642,-3.49098 19.35086,-3.39375 28.90355,0.27303 5.78327,2.2201 10.83977,5.54363 15.02856,9.87876 3.215,3.32794 5.80095,7.18526 7.58695,11.29204 -2.87322,-3.98794 -6.56652,-7.35616 -10.82062,-9.84537 -5.35457,-3.1325 -11.48159,-4.78788 -17.71929,-4.78788 -5.6641,0 -11.07161,1.30623 -16.07202,3.88187 -4.7706,2.4568 -8.98497,6.04059 -12.1874,10.36294 -0.11452,0.15469 -0.0821,0.37223 0.0723,0.48665 0.15425,0.11442 0.37213,0.082 0.48684,-0.0722 3.13958,-4.2374 7.27066,-7.74999 11.94688,-10.15866 4.90108,-2.52457 10.20134,-3.80478 15.75342,-3.80478 6.11444,0 12.12017,1.62297 17.36769,4.69262 5.09284,2.97979 9.36559,7.24469 12.35569,12.3331 0.0899,0.1537 0.28187,0.2141 0.44343,0.14094 0.16205,-0.0737 0.24259,-0.25732 0.1871,-0.42575 -1.75704,-5.33003 -4.83503,-10.3713 -8.90056,-14.57924 C 101.09007,39.34219 95.94911,35.96219 90.06959,33.70526 80.35652,29.9766 69.91471,29.88035 60.66771,33.43272 51.4075,36.99048 44.45372,43.77995 41.08667,52.55086 c -2.86793,7.47156 -2.85681,15.55105 0.032,23.36537 0.052,0.14044 0.18511,0.22687 0.32648,0.22687 0.0401,0 0.0808,-0.007 0.12066,-0.0211 0.18031,-0.0668 0.27239,-0.26714 0.20563,-0.44736 -2.82937,-7.65276 -2.84146,-15.56284 -0.0349,-22.87381"
   style="fill:#ffffff;fill-opacity:1;fill-rule:nonzero;stroke:none;stroke-width:0.0491065"
   id="path3800"
   inkscape:connector-curvature="0" /></svg>